<svg width="512" height="512" viewBox="0 0 512 512" fill="none" xmlns="http://www.w3.org/2000/svg">
<rect width="512" height="512" rx="120" fill="white"/>
<g clip-path="url(#clip0_2704_908)">
<path d="M351.703 347.016C354.203 326 353.5 322.953 369.125 326.312L373.11 326.625C385.141 327.172 400.844 324.672 410.141 320.375C430.063 311.156 441.86 295.766 422.25 299.75C377.485 308.969 374.438 293.812 374.438 293.812C421.703 223.734 441.469 134.75 424.36 112.953C377.797 53.6562 297.25 81.7812 295.922 82.4843L295.531 82.5624C286.703 80.7655 276.781 79.5937 265.688 79.4374C245.453 79.1249 230.063 84.7499 218.422 93.578C218.422 93.578 74.8282 34.4374 81.547 167.953C82.9532 196.391 122.25 382.953 169.125 326.547C186.235 305.922 202.797 288.5 202.797 288.5C211 293.969 220.844 296.781 231.156 295.766L231.938 295.062C231.703 297.641 231.781 300.141 232.25 303.109C220.141 316.625 223.735 318.969 199.594 323.969C175.141 328.969 189.516 337.953 198.891 340.297C210.219 343.109 236.547 347.172 254.281 322.328L253.578 325.141C258.344 328.969 258.031 352.406 258.656 369.125C259.36 385.844 260.453 401.547 263.891 410.766C267.328 419.984 271.313 443.734 303.031 436.937C329.594 431.234 349.828 423.109 351.703 347.016Z" fill="black" stroke="black" stroke-width="37.3953"/>
<path d="M422.172 299.829C377.406 309.047 374.359 293.891 374.359 293.891C421.625 223.813 441.391 134.829 424.281 113.032C377.797 53.6567 297.25 81.7817 295.922 82.4849L295.453 82.563C286.625 80.7661 276.703 79.6724 265.609 79.438C245.375 79.1255 229.985 84.7505 218.344 93.5786C218.344 93.5786 74.7501 34.438 81.4689 167.954C82.8751 196.391 122.172 382.954 169.047 326.547C186.156 305.922 202.719 288.5 202.719 288.5C210.922 293.969 220.766 296.782 231.078 295.766L231.86 295.063C231.625 297.641 231.703 300.141 232.172 303.11C220.063 316.625 223.656 318.969 199.516 323.969C175.063 328.969 189.438 337.954 198.813 340.297C210.141 343.11 236.469 347.172 254.203 322.329L253.5 325.141C258.266 328.969 261.547 349.829 261 368.735C260.453 387.641 260.063 400.61 263.813 410.766C267.563 420.922 271.235 443.735 302.953 436.938C329.438 431.235 343.188 416.547 345.141 391.938C346.469 374.438 349.594 377.094 349.75 361.469L352.25 354.047C355.063 330.375 352.719 322.719 369.047 326.313L373.031 326.625C385.063 327.172 400.766 324.672 410.063 320.375C429.985 311.235 441.703 295.844 422.172 299.829Z" fill="#336791"/>
<path d="M256.234 313.422C254.984 357.484 256.547 401.859 260.843 412.563C265.14 423.344 274.359 444.281 306.156 437.484C332.64 431.781 342.328 420.766 346.468 396.547C349.515 378.656 355.531 329.047 356.234 318.891M218.187 92.6407C218.187 92.6407 74.5153 33.8907 81.1559 167.484C82.5622 195.922 121.859 382.484 168.734 326.078C185.843 305.453 201.39 289.281 201.39 289.281M295.765 81.9375C290.765 83.5 375.687 50.9219 423.968 112.563C441 134.359 421.234 223.344 374.047 293.422" stroke="white" stroke-width="12.4651" stroke-linecap="round" stroke-linejoin="round"/>
<path d="M373.968 293.422C373.968 293.422 377.015 308.578 421.781 299.359C441.39 295.297 429.593 310.687 409.671 319.984C393.343 327.562 356.781 329.516 356.156 319.047C354.671 291.937 375.531 300.141 373.968 293.422ZM373.968 293.422C372.64 287.328 363.343 281.312 357.171 266.469C351.781 253.422 283.5 153.656 376.078 168.422C379.437 167.719 351.937 80.3749 265.296 78.9687C178.656 77.5624 181.546 185.531 181.546 185.531" stroke="white" stroke-width="12.4651" stroke-linecap="round" stroke-linejoin="bevel"/>
<path d="M199.281 323.5C223.421 318.5 219.828 316.157 231.937 302.641C238.109 295.688 242.953 297.563 246.546 299.125C253.968 302.25 259.359 314.282 253.968 321.86C236.234 346.704 209.906 342.641 198.578 339.829C189.203 337.485 174.828 328.5 199.281 323.5Z" stroke="white" stroke-width="12.4651" stroke-linecap="round" stroke-linejoin="round"/>
<path d="M231.155 302.406C229.905 294.437 233.734 285.062 237.874 273.969C244.046 257.406 258.265 240.844 246.859 188.266C238.421 149.125 181.546 180.141 181.546 185.453C181.546 190.766 184.124 212.406 180.609 237.562C175.999 270.375 201.468 298.187 230.843 295.297" stroke="white" stroke-width="12.4651" stroke-linecap="round" stroke-linejoin="round"/>
<path d="M217.641 184.672C217.406 186.469 221 191.313 225.609 191.938C230.297 192.563 234.281 188.813 234.516 187.016C234.75 185.219 231.234 183.188 226.547 182.563C221.859 181.859 217.875 182.797 217.641 184.672Z" fill="white" stroke="white" stroke-width="4.155"/>
<path d="M359.438 180.922C359.672 182.719 356.156 187.563 351.469 188.188C346.781 188.813 342.797 185.063 342.563 183.266C342.328 181.469 345.922 179.438 350.531 178.813C355.141 178.188 359.203 179.125 359.438 180.922Z" fill="white" stroke="white" stroke-width="2.0775"/>
<path d="M376.156 168.422C376.937 182.641 373.109 192.328 372.641 207.484C371.937 229.516 383.109 254.672 366.234 279.906" stroke="white" stroke-width="12.4651" stroke-linecap="round" stroke-linejoin="round"/>
</g>
<defs>
<clipPath id="clip0_2704_908">
<rect width="400" height="400" fill="white" transform="translate(56 56)"/>
</clipPath>
</defs>
</svg>
