<svg width="512" height="512" viewBox="0 0 512 512" fill="none" xmlns="http://www.w3.org/2000/svg">
<rect width="512" height="512" rx="120" fill="#151C2C"/>
<g clip-path="url(#clip0_2704_919)">
<mask id="mask0_2704_919" style="mask-type:luminance" maskUnits="userSpaceOnUse" x="56" y="136" width="400" height="240">
<path d="M56 136H456V376H56V136Z" fill="white"/>
</mask>
<g mask="url(#mask0_2704_919)">
<path fill-rule="evenodd" clip-rule="evenodd" d="M256 136C202.667 136 169.333 162.667 156 216C176 189.333 199.333 179.333 226 186C241.215 189.8 252.089 200.844 264.126 213.059C283.733 232.963 306.43 256 356 256C409.333 256 442.667 229.333 456 176C436 202.667 412.667 212.667 386 206C370.785 202.2 359.911 191.156 347.874 178.941C328.267 159.037 305.57 136 256 136ZM156 256C102.667 256 69.3333 282.667 56 336C76 309.333 99.3333 299.333 126 306C141.215 309.807 152.089 320.844 164.126 333.059C183.733 352.963 206.43 376 256 376C309.333 376 342.667 349.333 356 296C336 322.667 312.667 332.667 286 326C270.785 322.2 259.911 311.156 247.874 298.941C228.267 279.037 205.57 256 156 256Z" fill="#38BDF8"/>
</g>
</g>
<defs>
<clipPath id="clip0_2704_919">
<rect width="400" height="240" fill="white" transform="translate(56 136)"/>
</clipPath>
</defs>
</svg>
