<svg width="512" height="512" viewBox="0 0 512 512" fill="none" xmlns="http://www.w3.org/2000/svg">
<rect width="512" height="512" rx="120" fill="white"/>
<g clip-path="url(#clip0_2704_853)">
<path d="M90.1218 95.0133C89.3765 91.9961 92.1749 89.3024 95.1615 90.1623L182.185 115.217C182.964 115.214 183.735 115.436 184.393 115.853L356.023 165.266C356.734 165.28 357.435 165.482 358.045 165.847L445.076 190.905C448.066 191.766 449.001 195.541 446.759 197.698L184.132 450.324C181.891 452.48 178.155 451.401 177.409 448.382L133.845 272.019C133.786 271.838 133.741 271.653 133.708 271.465L90.1218 95.0133ZM164.667 363.108L183.574 439.649L240.51 384.879L164.667 363.108ZM223.314 302.578L168.19 355.712L241.625 376.794L223.314 302.578ZM231.497 302.01L249.749 375.992L304.723 323.111L231.497 302.01ZM143.297 276.595L161.629 350.814L216.689 297.743L143.297 276.595ZM288.321 239.847L232.312 293.835L306.951 315.344L288.321 239.847ZM296.169 237.927L314.799 313.42L370.961 259.397L296.169 237.927ZM201.661 214.795L145.532 268.83L220.308 290.377L201.661 214.795ZM209.479 212.757L227.79 286.972L282.914 233.837L209.479 212.757ZM121.303 187.554L139.938 263.001L196.027 209.004L121.303 187.554ZM353.711 177.079L298.587 230.213L372.022 251.295L353.711 177.079ZM361.589 175.275L380.16 250.548L436.108 196.731L361.589 175.275ZM266.692 152.193L211.815 205.021L284.904 226.002L266.692 152.193ZM274.524 150.208L292.86 224.513L348.001 171.362L274.524 150.208ZM179.972 127.031L124.848 180.165L198.283 201.247L179.972 127.031ZM187.857 125.256L206.122 199.285L261.113 146.347L187.857 125.256ZM99.641 99.8585L118.272 175.284L174.24 121.336L99.641 99.8585Z" fill="black"/>
</g>
<defs>
<clipPath id="clip0_2704_853">
<rect width="358" height="358" fill="white" transform="translate(90 90)"/>
</clipPath>
</defs>
</svg>
